<svg xmlns="http://www.w3.org/2000/svg" fill="none" style="-webkit-print-color-adjust::exact" viewBox="398 398 404 404">
  <g fill="#000" class="plot-d6a7b5">
    <g class="fills">
      <defs>
        <linearGradient id="a" x1=".5" x2=".5" y1="0" y2="1">
          <stop offset="0" stop-color="#131625" stop-opacity=".86" />
          <stop offset="1" stop-color="#0a0c16" stop-opacity=".94" />
        </linearGradient>
        <pattern id="b" width="399" height="399" x=".5" y=".5" patternTransform="translate(398 398)scale(1.009)"
          patternUnits="userSpaceOnUse">
          <path fill="url(#a)" d="M.5.5h399v399H.5z" />
        </pattern>
      </defs>
      <rect width="402.5" height="402.5" x="398.5" y="398.5" fill="url(#b)" class="fills" rx="0" ry="0" />
      <defs>
        <pattern id="c" width="18" height="18" x="1" y="1" patternTransform="translate(396.98 396.98)scale(1.015)"
          patternUnits="userSpaceOnUse">
          <circle cx="9" cy="9" r=".9" fill="#6d83ff" fill-opacity=".1" />
        </pattern>
      </defs>
      <rect width="404" height="404" x="398" y="398" fill="url(#c)" class="fills" rx="0" ry="0" />
    </g>
    <rect width="404" height="404" x="398" y="398" fill="none" class="fills" rx="0" ry="0" />
    <g fill="none" class="strokes">
      <rect width="404" height="404" x="398" y="398" stroke="#fff" stroke-opacity=".05" stroke-width="2"
        class="stroke-shape" rx="0" ry="0" />
    </g>
    <path fill="none" d="M400 400h400v400H400Z" class="fills" color="#f2f4ff" font-family="var(--font-body)"
      font-size="10" style="background:0 0" text-anchor="middle" />
    <g fill="none" class="strokes" color="#f2f4ff" font-family="var(--font-body)" font-size="10" style="background:0 0"
      text-anchor="middle">
      <path stroke="#c8d4ff" stroke-opacity=".22" stroke-width="2" d="M400 400h400v400H400Z" class="stroke-shape" />
    </g>
    <path fill="none" stroke="rgba(200,212,255,.08)" stroke-width="2"
      d="M400 400v400m0-400h400m-300 0v400M400 500h400M600 400v400M400 600h400M700 400v400M400 700h400m0-300v400m-400 0h400"
      class="fills" />
    <rect width="98.35" height="98.35" x="401" y="600.77" fill="#67e8f9" fill-opacity=".44" class="fills"
      font-family="var(--font-body)" font-size="10" overflow="visible" rx="0" ry="0" style="background:0 0"
      text-anchor="middle" />
    <g class="strokes" font-family="var(--font-body)" font-size="10" style="background:0 0" text-anchor="middle">
      <rect width="98.35" height="98.35" x="401" y="600.77" fill="none" stroke="#67e8f9" stroke-opacity=".9"
        stroke-width=".45" class="stroke-shape" rx="0" ry="0" />
    </g>
    <rect width="98.35" height="98.35" x="500.88" y="700.65" fill="#67e8f9" fill-opacity=".44" class="fills"
      font-family="var(--font-body)" font-size="10" overflow="visible" rx="0" ry="0" style="background:0 0"
      text-anchor="middle" />
    <g class="strokes" font-family="var(--font-body)" font-size="10" style="background:0 0" text-anchor="middle">
      <rect width="98.35" height="98.35" x="500.88" y="700.65" fill="none" stroke="#67e8f9" stroke-opacity=".9"
        stroke-width=".45" class="stroke-shape" rx="0" ry="0" />
    </g>
    <rect width="98.35" height="98.35" x="600.77" y="401" fill="#67e8f9" fill-opacity=".44" class="fills"
      font-family="var(--font-body)" font-size="10" overflow="visible" rx="0" ry="0" style="background:0 0"
      text-anchor="middle" />
    <g class="strokes" font-family="var(--font-body)" font-size="10" style="background:0 0" text-anchor="middle">
      <rect width="98.35" height="98.35" x="600.77" y="401" fill="none" stroke="#67e8f9" stroke-opacity=".9"
        stroke-width=".45" class="stroke-shape" rx="0" ry="0" />
    </g>
    <rect width="98.35" height="98.35" x="700.65" y="500.88" fill="#67e8f9" fill-opacity=".44" class="fills"
      font-family="var(--font-body)" font-size="10" overflow="visible" rx="0" ry="0" style="background:0 0"
      text-anchor="middle" />
    <g class="strokes" font-family="var(--font-body)" font-size="10" style="background:0 0" text-anchor="middle">
      <rect width="98.35" height="98.35" x="700.65" y="500.88" fill="none" stroke="#67e8f9" stroke-opacity=".9"
        stroke-width=".45" class="stroke-shape" rx="0" ry="0" />
    </g>
  </g>
</svg>
